<?xml version="1.0" encoding="UTF-8"?>
<!DOCTYPE svg PUBLIC "-//W3C//DTD SVG 1.0//EN" "http://www.w3.org/TR/2001/REC-SVG-20010904/DTD/svg10.dtd">
<!-- Creator: CorelDRAW X6 -->
<svg xmlns="http://www.w3.org/2000/svg" xml:space="preserve" width="164px" height="53px" version="1.0" style="shape-rendering:geometricPrecision; text-rendering:geometricPrecision; image-rendering:optimizeQuality; fill-rule:evenodd; clip-rule:evenodd"
viewBox="0 0 20732 6662"
 xmlns:xlink="http://www.w3.org/1999/xlink">
 <defs>
  <style type="text/css">
   <![CDATA[
    .fil1 {fill:black;fill-rule:nonzero}
    .fil0 {fill:white;fill-rule:nonzero}
   ]]>
  </style>
 </defs>
 <g id="Слой_x0020_1">
  <metadata id="CorelCorpID_0Corel-Layer"/>
  <g id="_797521872">
   <polygon class="fil0" points="0,5227 0,446 464,446 464,2666 2603,446 3176,446 908,2762 3224,5227 2603,5227 464,2905 464,5227 "/>
   <polygon id="1" class="fil0" points="3374,2263 3839,2263 4952,4770 5902,2263 6319,2263 4570,6662 4126,6662 4741,5200 "/>
   <path id="2" class="fil0" d="M6899 2263l383 0 0 526c91,-173 225,-324 403,-454 178,-130 412,-195 704,-195 469,0 841,151 1117,454 276,303 413,687 413,1151 0,524 -154,921 -461,1192 -307,271 -659,406 -1055,406 -232,0 -425,-40 -577,-120 -153,-80 -274,-167 -365,-263 -32,-36 -60,-71 -85,-102 -25,-32 -47,-61 -65,-89l0 1892 -410 0 0 -4399zm1503 2760c351,0 618,-126 803,-379 184,-253 277,-552 277,-898 0,-46 -2,-91 -7,-137 -5,-46 -9,-91 -14,-137 -46,-250 -155,-480 -328,-690 -173,-209 -435,-314 -786,-314 -332,0 -593,129 -782,386 -189,257 -283,554 -283,891 0,401 112,714 335,939 223,225 485,338 786,338z"/>
   <path id="3" class="fil0" d="M13163 4654l0 430c-18,9 -38,19 -58,31 -20,11 -42,24 -65,38 -96,50 -209,95 -342,133 -132,39 -282,58 -451,58 -505,0 -915,-153 -1230,-458 -314,-305 -471,-685 -471,-1141 0,-464 157,-848 471,-1151 314,-303 722,-454 1223,-454 196,0 360,19 492,58 132,39 239,81 321,126 23,14 43,26 61,38 18,11 34,22 48,31l0 403c-196,-141 -363,-231 -502,-270 -139,-39 -270,-58 -393,-58 -342,0 -641,110 -898,331 -257,221 -386,536 -386,946 0,401 124,714 372,939 248,225 538,338 871,338 200,0 378,-38 533,-113 155,-75 289,-161 403,-256z"/>
   <path id="4" class="fil0" d="M15281 5350c-428,-5 -804,-147 -1127,-427 -323,-280 -485,-673 -485,-1178 0,-446 148,-825 444,-1137 296,-312 685,-468 1168,-468 487,0 878,156 1172,468 294,312 441,691 441,1137 0,446 -147,824 -441,1134 -294,310 -684,465 -1172,465l0 7zm0 -328c373,0 663,-133 868,-400 205,-266 307,-559 307,-878 0,-323 -102,-617 -307,-881 -205,-264 -494,-396 -868,-396 -373,0 -663,132 -867,396 -205,264 -307,558 -307,881 0,323 102,617 307,881 205,264 494,396 867,396z"/>
   <path id="5" class="fil0" d="M17712 2263l383 0 0 526c91,-173 225,-324 403,-454 178,-130 412,-195 704,-195 469,0 841,151 1117,454 276,303 413,687 413,1151 0,524 -154,921 -461,1192 -307,271 -659,406 -1055,406 -232,0 -425,-40 -577,-120 -153,-80 -274,-167 -365,-263 -32,-36 -60,-71 -85,-102 -25,-32 -47,-61 -65,-89l0 1892 -410 0 0 -4399zm1503 2760c351,0 618,-126 803,-379 184,-253 277,-552 277,-898 0,-46 -2,-91 -7,-137 -5,-46 -9,-91 -14,-137 -46,-250 -155,-480 -328,-690 -173,-209 -435,-314 -786,-314 -332,0 -593,129 -782,386 -189,257 -283,554 -283,891 0,401 112,714 335,939 223,225 485,338 786,338z"/>
   <polygon class="fil1" points="3520,503 3633,503 3633,1099 4191,456 4191,1324 4078,1324 4078,734 3520,1377 "/>
   <polygon id="1" class="fil1" points="4471,1324 4471,503 4585,503 4585,859 5047,859 5047,503 5160,503 5160,1324 5047,1324 5047,950 4585,950 4585,1324 "/>
   <polygon id="2" class="fil1" points="5612,1324 5612,594 5321,594 5321,503 6017,503 6017,594 5726,594 5726,1324 "/>
   <path id="3" class="fil1" d="M6838 1065l87 44c-33,67 -79,125 -140,174 -61,49 -140,74 -238,74 -134,0 -237,-45 -311,-135 -74,-90 -111,-193 -111,-307 0,-20 1,-41 4,-63 3,-22 7,-44 13,-67 21,-78 64,-150 128,-216 64,-66 156,-98 277,-98 108,0 192,31 251,92 59,61 97,129 114,203 5,18 9,35 10,53 2,18 3,35 3,51l0 55 -679 0c0,1 0,2 0,3 0,1 0,1 0,1 0,1 0,2 0,3 0,1 0,2 0,3 0,11 1,23 2,34 1,11 3,23 4,36 13,66 43,126 92,182 49,56 116,83 203,83 21,0 47,-3 76,-8 29,-5 59,-18 91,-40 21,-15 43,-35 64,-60 21,-25 42,-56 61,-96zm-583 -233l556 0c-3,-69 -27,-132 -73,-188 -46,-56 -109,-84 -190,-84 -79,0 -145,26 -198,78 -52,52 -84,117 -96,195z"/>
   <path id="4" class="fil1" d="M7153 503l106 0 0 146c25,-48 62,-90 112,-126 49,-36 114,-54 195,-54 130,0 233,42 309,126 76,84 114,190 114,319 0,145 -43,255 -128,330 -85,75 -183,113 -292,113 -64,0 -118,-11 -160,-33 -42,-22 -76,-46 -101,-73 -9,-10 -17,-20 -24,-28 -7,-9 -13,-17 -18,-25l0 524 -114 0 0 -1219zm416 764c97,0 171,-35 222,-105 51,-70 77,-153 77,-249 0,-13 -1,-25 -2,-38 -1,-13 -3,-25 -4,-38 -13,-69 -43,-133 -91,-191 -48,-58 -120,-87 -218,-87 -92,0 -164,36 -217,107 -52,71 -79,154 -79,247 0,111 31,198 93,260 62,62 134,94 218,94z"/>
   <polygon id="5" class="fil1" points="8216,1324 8216,503 8330,503 8330,859 8791,859 8791,503 8905,503 8905,1324 8791,1324 8791,950 8330,950 8330,1324 "/>
   <path id="6" class="fil1" d="M9845 1065l87 44c-33,67 -79,125 -140,174 -61,49 -140,74 -238,74 -134,0 -237,-45 -311,-135 -74,-90 -111,-193 -111,-307 0,-20 1,-41 4,-63 3,-22 7,-44 13,-67 21,-78 64,-150 128,-216 64,-66 156,-98 277,-98 108,0 192,31 251,92 59,61 97,129 114,203 5,18 9,35 10,53 2,18 3,35 3,51l0 55 -679 0c0,1 0,2 0,3 0,1 0,1 0,1 0,1 0,2 0,3 0,1 0,2 0,3 0,11 1,23 2,34 1,11 3,23 4,36 13,66 43,126 92,182 49,56 116,83 203,83 21,0 47,-3 76,-8 29,-5 59,-18 91,-40 21,-15 43,-35 64,-60 21,-25 42,-56 61,-96zm-583 -233l556 0c-3,-69 -27,-132 -73,-188 -46,-56 -109,-84 -190,-84 -79,0 -145,26 -198,78 -52,52 -84,117 -96,195z"/>
   <polygon id="7" class="fil1" points="10331,1324 10331,594 10040,594 10040,503 10736,503 10736,594 10445,594 10445,1324 "/>
   <polygon id="8" class="fil1" points="10837,780 11260,780 11260,893 10837,893 "/>
   <polygon id="9" class="fil1" points="11652,1324 11652,594 11361,594 11361,503 12057,503 12057,594 11766,594 11766,1324 "/>
   <polygon id="10" class="fil1" points="12218,503 12331,503 12331,1099 12890,456 12890,1324 12776,1324 12776,734 12218,1377 "/>
   <polygon id="11" class="fil1" points="13170,503 13832,503 13832,1324 13718,1324 13718,594 13283,594 13283,1324 13170,1324 "/>
   <path id="12" class="fil1" d="M14506 1359c-119,-1 -223,-41 -312,-118 -90,-78 -134,-186 -134,-326 0,-124 41,-229 123,-315 82,-86 190,-130 324,-130 135,0 243,43 325,130 81,86 122,191 122,315 0,124 -41,228 -122,314 -81,86 -190,129 -325,129l0 2zm0 -91c103,0 184,-37 240,-111 57,-74 85,-155 85,-243 0,-90 -28,-171 -85,-244 -57,-73 -137,-110 -240,-110 -103,0 -184,37 -240,110 -57,73 -85,155 -85,244 0,90 28,171 85,244 57,73 137,110 240,110z"/>
   <polygon id="13" class="fil1" points="15179,1324 15179,503 15637,503 15637,594 15293,594 15293,1324 "/>
   <path id="14" class="fil1" d="M15798 503l106 0 0 146c25,-48 62,-90 112,-126 49,-36 114,-54 195,-54 130,0 233,42 309,126 76,84 114,190 114,319 0,145 -43,255 -128,330 -85,75 -183,113 -292,113 -64,0 -118,-11 -160,-33 -42,-22 -76,-46 -101,-73 -9,-10 -17,-20 -24,-28 -7,-9 -13,-17 -18,-25l0 524 -114 0 0 -1219zm416 764c97,0 171,-35 222,-105 51,-70 77,-153 77,-249 0,-13 -1,-25 -2,-38 -1,-13 -3,-25 -4,-38 -13,-69 -43,-133 -91,-191 -48,-58 -120,-87 -218,-87 -92,0 -164,36 -217,107 -52,71 -79,154 -79,247 0,111 31,198 93,260 62,62 134,94 218,94z"/>
   <path id="15" class="fil1" d="M17539 649l0 -146 106 0 0 821 -106 0 0 -140c-33,59 -77,103 -131,131 -55,28 -112,42 -171,42 -111,0 -210,-38 -297,-113 -87,-75 -131,-185 -131,-330 0,-124 39,-229 116,-315 78,-86 182,-130 313,-130 20,0 41,2 63,5 22,3 45,9 69,18 30,13 60,31 90,56 30,25 56,58 78,101zm-303 619c84,0 156,-31 215,-94 59,-62 88,-149 88,-260 0,-93 -26,-176 -79,-247 -53,-71 -126,-107 -220,-107 -93,0 -168,34 -225,103 -57,69 -85,152 -85,251 0,92 27,174 81,246 54,72 129,108 225,108z"/>
   <path id="16" class="fil1" d="M18362 1722l0 -384c-23,-1 -47,-3 -72,-6 -25,-3 -50,-6 -76,-9 -86,-19 -164,-60 -236,-122 -71,-62 -107,-158 -107,-287 0,-129 36,-224 107,-287 71,-62 150,-103 236,-122 25,-5 50,-9 76,-11 25,-3 49,-4 72,-4l0 -490 114 0 0 490c130,-1 244,33 342,103 98,70 148,177 148,321 0,144 -49,250 -148,320 -98,69 -213,103 -342,102l0 386 -114 0zm0 -475l0 -666c-19,0 -43,2 -73,6 -30,4 -61,11 -94,23 -50,19 -97,51 -139,97 -42,46 -63,115 -63,207 0,92 21,161 63,208 42,47 89,79 139,97 33,11 64,19 94,23 30,4 54,6 73,6zm114 -666l0 666c19,0 43,-2 73,-6 30,-4 61,-11 94,-23 50,-18 97,-50 139,-96 42,-46 63,-116 63,-209 0,-93 -21,-163 -63,-209 -42,-46 -89,-78 -139,-96 -33,-11 -64,-19 -94,-23 -30,-4 -54,-6 -73,-6z"/>
   <polygon id="17" class="fil1" points="19192,503 19306,503 19306,1099 19864,456 19864,1324 19751,1324 19751,734 19192,1377 "/>
   <path id="18" class="fil1" d="M20057 1324l238 -354c-54,-6 -102,-28 -144,-66 -42,-38 -62,-92 -62,-163 0,-13 1,-26 3,-42 2,-15 6,-30 12,-45 13,-38 39,-72 80,-104 41,-32 106,-47 194,-47l295 0 0 821 -114 0 0 -344 -159 0 -218 344 -127 0zm503 -435l0 -295 -165 0c-10,0 -22,1 -37,2 -14,1 -29,4 -44,8 -28,6 -53,20 -77,41 -23,21 -35,53 -35,97 0,44 12,77 35,97 23,21 49,34 77,41 15,4 30,6 44,8 15,1 27,2 37,2l165 0z"/>
  </g>
 </g>
</svg>
